<svg aria-hidden="true" style="position:absolute;width:0;height:0;overflow:hidden" xmlns="http://www.w3.org/2000/svg">
  <defs>
    <symbol id="icon-basket-icon" viewBox="0 0 32 32">
      <path d="M9 24.006c-1.645 0-3 1.355-3 3s1.355 3 3 3 3-1.355 3-3-1.355-3-3-3zm0 2c.564 0 1 .436 1 1s-.436 1-1 1c-.564 0-1-.436-1-1s.436-1 1-1zm15-2c-1.645 0-3 1.355-3 3s1.355 3 3 3 3-1.355 3-3-1.355-3-3-3zm0 2c.564 0 1 .436 1 1s-.436 1-1 1c-.564 0-1-.436-1-1s.436-1 1-1zm-21-24a1 1 0 0 0 0 2h1.18l2.65 13.242A3.016 3.016 0 0 0 5 20.006c0 1.645 1.355 3 3 3h18.012a1 1 0 0 0 0-2H8c-.571 0-1-.429-1-1s.429-1 1-1h19.012a1 1 0 0 0 .988-.844l1.73-11a1 1 0 0 0-.988-1.156H6.619L5.98 2.811A1 1 0 0 0 5 2.006zm4.02 6h20.553l-1.416 9L8.821 17zm3.98 2a1 1 0 0 0 0 2h13.012a1 1 0 0 0 0-2zm2 3a1 1 0 0 0 0 2h9.012a1 1 0 0 0 0-2z"/>
    </symbol>
  </defs>
</svg>
